# xmcd CD database file
#
# Track frame offsets:
#	150
#	51467
#	80207
#	97960
#	119830
#	139586
#	161038
#	171553
#	190640
#	245448
#
# Disc length: 3612 seconds
#
# Revision: 2
# Processed by: cddbd v1.4PL0 Copyright (c) Steve Scherf et al.
# Submitted via: CDex 1.51
#
DISCID=910e1a0a
DTITLE=Peter Nero - Peter Nero
DYEAR=1999
DGENRE=Jazz
TTITLE0=Phantom Phantasy (Medley)
TTITLE1=Long Ago And Far Away
TTITLE2=As Time Goes By
TTITLE3=My Funny Valentine
TTITLE4=Stormy Weather
TTITLE5=Night And Day
TTITLE6=The Man I Love
TTITLE7=Ob La Di, Ob La Da
TTITLE8=Ellington Medley
TTITLE9=When I Fall In Love
EXTD=YEAR: 1999
EXTT0=
EXTT1=
EXTT2=
EXTT3=
EXTT4=
EXTT5=
EXTT6=
EXTT7=
EXTT8=
EXTT9=
PLAYORDER=
